<?xml version="1.0"?>
<svg xmlns="http://www.w3.org/2000/svg" height="512px" viewBox="0 0 512 512" width="512px" class="hovered-paths"><g><script xmlns="" class="__REQUESTLY__SCRIPT">(function(namespace) {
  window[namespace] = window[namespace] || {};
  window[namespace].responseRules = {};

  let open = XMLHttpRequest.prototype.open;
  XMLHttpRequest.prototype.open = function(method) {
    this.addEventListener('readystatechange', function() {
      if (this.readyState === 4 &amp;&amp; window[namespace].responseRules.hasOwnProperty(this.responseURL)) {
        const responseRule = window[namespace].responseRules[this.responseURL];
        const {response, id} = responseRule;
        const responseType = this.responseType;
        let customResponse;

        customResponse = response.type === 'code' ? responseRule.evaluator({
            method,
            url: this.responseURL,
            requestHeaders: this.requestHeaders,
            requestData: this.requestData,
            responseType: this.responseType,
            response: this.response
          }) : response.value;

        Object.defineProperty(this, 'response', {
          get: function () {
            if (response.type === 'static' &amp;&amp; responseType === 'json') {
              return JSON.parse(customResponse);
            }
            return customResponse;
          }
        });

        if (responseType === '' || responseType === 'text') {
          Object.defineProperty(this, 'responseText', {
            get: function () {
              return customResponse;
            }
          });
        }

        window.postMessage({
          from: 'requestly',
          type: 'response_rule_applied',
          id
        }, window.location.href);
      }
    }, false);
    open.apply(this, arguments);
  };

  let send = XMLHttpRequest.prototype.send;
  XMLHttpRequest.prototype.send = function(data) {
    this.requestData = data;
    send.apply(this, arguments);
  };

  let setRequestHeader = XMLHttpRequest.prototype.setRequestHeader;
  XMLHttpRequest.prototype.setRequestHeader = function(header, value) {
    this.requestHeaders = this.requestHeaders || {};
    this.requestHeaders[header] = value;
    setRequestHeader.apply(this, arguments);
  }
})('__REQUESTLY__')</script><path d="m256 0c-141.164062 0-256 114.835938-256 256s114.835938 256 256 256 256-114.835938 256-256-114.835938-256-256-256zm0 0" fill="#f44336" data-original="#F44336" class="hovered-path" style="fill:#FBAF03" data-old_color="#f44336"/><path d="m350.273438 320.105469c8.339843 8.34375 8.339843 21.824219 0 30.167969-4.160157 4.160156-9.621094 6.25-15.085938 6.25-5.460938 0-10.921875-2.089844-15.082031-6.25l-64.105469-64.109376-64.105469 64.109376c-4.160156 4.160156-9.621093 6.25-15.082031 6.25-5.464844 0-10.925781-2.089844-15.085938-6.25-8.339843-8.34375-8.339843-21.824219 0-30.167969l64.109376-64.105469-64.109376-64.105469c-8.339843-8.34375-8.339843-21.824219 0-30.167969 8.34375-8.339843 21.824219-8.339843 30.167969 0l64.105469 64.109376 64.105469-64.109376c8.34375-8.339843 21.824219-8.339843 30.167969 0 8.339843 8.34375 8.339843 21.824219 0 30.167969l-64.109376 64.105469zm0 0" fill="#fafafa" data-original="#FAFAFA" class="active-path" style="fill:#FFFFFF" data-old_color="#fafafa"/></g> </svg>
