<svg width="77" height="108" viewBox="0 0 77 108" fill="none" xmlns="http://www.w3.org/2000/svg">
<path d="M67.6094 50.9083C68.3449 52.2078 69.9877 52.9679 71.7285 52.7963C71.9247 52.7227 72.1944 52.6246 72.4641 52.453C73.1016 52.0607 73.4939 51.5703 73.4694 51.5458C73.4449 51.5213 72.7093 52.6246 71.4588 52.8453C70.8704 52.9434 70.429 52.7963 69.9877 52.6737C69.5218 52.502 68.2223 52.1097 67.6094 50.9083C67.2416 50.1728 67.2906 49.4127 67.3397 48.7997C67.3887 48.2358 67.5113 47.7699 67.6094 47.4511C67.6094 47.4266 67.3396 48.0641 67.2661 48.8242C67.2171 49.4127 67.2661 49.9276 67.3397 50.2708C66.1382 48.1377 64.4219 47.0098 63.1224 47.3776C62.7056 47.5002 62.0681 47.8435 61.921 48.4319C61.6513 49.3881 62.9998 49.7559 63.7844 51.7174C64.3483 53.1641 64.1032 54.1203 65.1084 55.1991C65.3781 55.4934 65.6478 55.6895 65.8195 55.8121C65.6233 56.6212 64.3483 61.5005 59.984 63.5846C55.1537 65.8894 48.4356 63.8788 44.5125 58.1904C44.2673 59.0731 44.0222 59.9313 43.7524 60.814C46.9644 66.8456 53.8297 69.7634 59.8614 67.9735C64.9123 66.4778 68.6882 61.9173 69.4238 56.4006C70.9685 56.6948 72.366 55.714 72.9054 55.3708C74.1804 54.4881 77.0491 51.5213 75.8722 48.4319C74.9895 46.1516 72.0963 44.2146 69.718 45.2935C67.8055 46.1271 66.4815 48.8732 67.6094 50.9083Z" fill="#FFD44F"/>
<path d="M67.6094 50.9083C68.3449 52.2078 69.9877 52.9679 71.7285 52.7963C71.9247 52.7227 72.1944 52.6246 72.4641 52.453C73.1016 52.0607 73.4939 51.5703 73.4694 51.5458C73.4449 51.5213 72.7093 52.6246 71.4588 52.8453C70.8704 52.9434 70.429 52.7963 69.9877 52.6737C69.5218 52.502 68.2223 52.1097 67.6094 50.9083ZM67.6094 50.9083C67.2416 50.1728 67.2906 49.4127 67.3397 48.7997C67.3887 48.2358 67.5113 47.7699 67.6094 47.4511C67.6094 47.4266 67.3396 48.0641 67.2661 48.8242C67.2171 49.4127 67.2661 49.9276 67.3397 50.2708C66.1382 48.1377 64.4219 47.0098 63.1224 47.3776C62.7056 47.5002 62.0681 47.8435 61.921 48.4319C61.6513 49.3881 62.9998 49.7559 63.7844 51.7174C64.3483 53.1641 64.1032 54.1203 65.1084 55.1991C65.3781 55.4934 65.6478 55.6895 65.8195 55.8121C65.6233 56.6212 64.3483 61.5005 59.984 63.5846C55.1537 65.8894 48.4356 63.8788 44.5125 58.1904C44.2673 59.0731 44.0222 59.9313 43.7524 60.814C46.9644 66.8456 53.8297 69.7634 59.8614 67.9735C64.9123 66.4778 68.6882 61.9173 69.4238 56.4006C70.9685 56.6948 72.366 55.714 72.9054 55.3708C74.1804 54.4881 77.0491 51.5213 75.8722 48.4319C74.9895 46.1516 72.0963 44.2146 69.718 45.2935C67.8055 46.1271 66.4815 48.8732 67.6094 50.9083Z" stroke="#571C32" stroke-width="0.791594" stroke-miterlimit="10" stroke-linecap="round" stroke-linejoin="round"/>
<path d="M17.9677 61.3211C18.5719 59.3394 19.1277 57.7928 19.5869 56.6811C20.3844 55.8836 24.6619 51.6303 31.5252 51.6061C37.2768 51.6061 41.4576 54.5061 43.5843 56.5603C43.5843 56.5603 45.5418 60.4511 45.7351 60.8136C46.5568 62.4811 52.0426 76.7394 46.001 85.3427C43.2218 89.2818 37.4218 90.1518 31.1868 89.8618C25.8219 89.6685 20.0219 89.4268 17.4361 85.5843C12.7477 78.8902 16.3002 67.1694 17.9677 61.3211Z" fill="#FFD54F"/>
<mask id="mask0" mask-type="alpha" maskUnits="userSpaceOnUse" x="15" y="51" width="34" height="39">
<path d="M17.9686 61.3222C18.5727 59.3406 19.1286 57.7939 19.5877 56.6823C20.3852 55.8848 24.6627 51.6314 31.526 51.6073C37.2777 51.6073 41.4585 54.5073 43.5851 56.5614C43.5851 56.5614 45.5426 60.4522 45.736 60.8147C46.5576 62.4822 52.0434 76.7405 46.0018 85.3438C43.2226 89.283 37.4227 90.153 31.1877 89.863C25.8227 89.6696 20.0227 89.428 17.4369 85.5855C12.7486 78.8913 16.3011 67.1706 17.9686 61.3222Z" fill="#FFD54F"/>
</mask>
<g mask="url(#mask0)">
<path d="M17.7018 50.5471C17.7018 50.5471 25.5076 52.5288 28.9393 52.9879C22.9943 62.2196 17.1702 86.0237 36.5518 90.132C34.7876 101.804 19.2001 90.9778 19.2001 90.9778C19.2001 90.9778 4.7727 75.7045 17.7018 50.5471Z" fill="#F5A546"/>
</g>
<path d="M22.2693 102.387C24.3476 101.13 23.3568 97.5537 24.7585 90.932C25.2176 88.8537 25.701 87.1862 26.0151 86.1471L21.4718 84.3104C21.1577 85.4946 20.7952 87.3795 20.2152 89.7237C18.1368 98.0128 17.146 100.623 18.5477 101.976C19.3452 102.991 21.1093 103.064 22.2693 102.387Z" fill="#FFD54F"/>
<path d="M22.2693 102.387C24.3476 101.13 23.3568 97.5537 24.7585 90.932C25.2176 88.8537 25.701 87.1862 26.0151 86.1471L21.4718 84.3104C21.1577 85.4946 20.7952 87.3795 20.2152 89.7237C18.1368 98.0128 17.146 100.623 18.5477 101.976C19.3452 102.991 21.1093 103.064 22.2693 102.387Z" stroke="#571C32" stroke-width="0.791594" stroke-miterlimit="10" stroke-linecap="round" stroke-linejoin="round"/>
<path d="M40.6376 102.387C38.5592 101.13 39.5501 97.5537 38.1484 90.932C37.6893 88.8537 37.2059 87.1862 36.8918 86.1471L41.4351 84.3104C41.7492 85.4946 42.1117 87.3795 42.6917 89.7237C44.7701 98.0128 45.7609 100.623 44.3592 101.976C43.5617 102.991 41.7976 103.064 40.6376 102.387Z" fill="#FFD54F"/>
<path d="M40.6376 102.387C38.5592 101.13 39.5501 97.5537 38.1484 90.932C37.6893 88.8537 37.2059 87.1862 36.8918 86.1471L41.4351 84.3104C41.7492 85.4946 42.1117 87.3795 42.6917 89.7237C44.7701 98.0128 45.7609 100.623 44.3592 101.976C43.5617 102.991 41.7976 103.064 40.6376 102.387Z" stroke="#571C32" stroke-width="0.791594" stroke-miterlimit="10" stroke-linecap="round" stroke-linejoin="round"/>
<path d="M40.6355 89.1385C40.6355 89.1385 41.0947 95.3252 39.9588 101.681L39.4997 98.9743L38.0497 88.8244C38.0497 88.8244 40.6355 87.5435 40.6355 89.1385Z" fill="#F5A546"/>
<path d="M50.6889 104.823C49.6014 105.548 47.4023 106.805 44.3815 107.071C40.1523 107.53 36.8898 105.814 35.8265 105.186C36.914 102.117 39.8381 99.9899 43.1731 99.9174C46.3873 99.7724 49.4081 101.754 50.6889 104.823Z" fill="#FFD54F"/>
<path d="M50.6889 104.823C49.6014 105.548 47.4023 106.805 44.3815 107.071C40.1523 107.53 36.8898 105.814 35.8265 105.186C36.914 102.117 39.8381 99.9899 43.1731 99.9174C46.3873 99.7724 49.4081 101.754 50.6889 104.823Z" stroke="#571C32" stroke-width="0.791594" stroke-miterlimit="10" stroke-linecap="round" stroke-linejoin="round"/>
<mask id="mask1" mask-type="alpha" maskUnits="userSpaceOnUse" x="35" y="99" width="16" height="9">
<path d="M50.6889 104.817C49.6014 105.542 47.4023 106.798 44.3815 107.064C40.1523 107.523 36.8898 105.807 35.8265 105.179C36.914 102.11 39.8381 99.9834 43.1731 99.9109C46.3873 99.7659 49.4081 101.748 50.6889 104.817Z" fill="#FFD54F"/>
</mask>
<g mask="url(#mask1)">
<path d="M35.0302 106.173C35.0302 106.173 33.8944 109.194 39.8877 103.249C39.8877 103.249 49.2643 98.6087 43.6819 98.7779C38.0994 98.9471 35.0302 105.641 35.0302 105.641V106.173Z" fill="#F5A546"/>
</g>
<path d="M50.6889 104.823C49.6014 105.548 47.4023 106.805 44.3815 107.071C40.1523 107.53 36.8898 105.814 35.8265 105.186C36.914 102.117 39.8381 99.9899 43.1731 99.9174C46.3873 99.7724 49.4081 101.754 50.6889 104.823Z" stroke="#571C32" stroke-width="0.791594" stroke-miterlimit="10" stroke-linecap="round" stroke-linejoin="round"/>
<path d="M23.3412 89.1053C23.3412 89.1053 21.5045 95.002 18.0729 100.512L18.6529 97.8053L21.0937 87.8487C21.0212 87.8487 23.9212 87.6312 23.3412 89.1053Z" fill="#F5A546"/>
<path d="M17.9677 61.3211C18.5719 59.3394 19.1277 57.7928 19.5869 56.6811C20.3844 55.8836 24.6619 51.6303 31.5252 51.6061C37.2768 51.6061 41.4576 54.5061 43.5843 56.5603C43.5843 56.5603 45.5418 60.4511 45.7351 60.8136C46.5568 62.4811 52.0426 76.7394 46.001 85.3427C43.2218 89.2818 37.4218 90.1518 31.1868 89.8618C25.8219 89.6685 20.0219 89.4268 17.4361 85.5843C12.7477 78.8902 16.3002 67.1694 17.9677 61.3211Z" stroke="#571C32" stroke-width="0.791594" stroke-miterlimit="10"/>
<path d="M20.9884 88.3159C21.7134 89.0892 26.2567 90.7325 32.1775 90.4425C34.28 90.3459 40.9258 89.4034 41.6992 88.5576C43.3183 86.7451 41.8683 78.2384 40.4425 75.3868C40.2492 75.0001 37.2767 69.3451 31.5975 69.2968C25.9909 69.2968 23.0184 74.7343 22.6801 75.3868C20.0942 80.1959 20.7709 87.5426 20.9884 88.3159Z" fill="#F8F4DD"/>
<path d="M20.9884 88.3159C21.7134 89.0892 26.2567 90.7325 32.1775 90.4425C34.28 90.3459 40.9258 89.4034 41.6992 88.5576C43.3183 86.7451 41.8683 78.2384 40.4425 75.3868C40.2492 75.0001 37.2767 69.3451 31.5975 69.2968C25.9909 69.2968 23.0184 74.7343 22.6801 75.3868C20.0942 80.1959 20.7709 87.5426 20.9884 88.3159Z" stroke="#571C32" stroke-width="0.791594" stroke-miterlimit="10"/>
<path d="M12.2163 104.823C13.3038 105.548 15.5029 106.805 18.5237 107.071C22.7529 107.53 26.0154 105.814 27.0787 105.186C25.9912 102.117 23.0671 99.9899 19.7321 99.9174C16.4938 99.7724 13.4971 101.754 12.2163 104.823Z" fill="#FFD54F"/>
<path d="M12.2163 104.823C13.3038 105.548 15.5029 106.805 18.5237 107.071C22.7529 107.53 26.0154 105.814 27.0787 105.186C25.9912 102.117 23.0671 99.9899 19.7321 99.9174C16.4938 99.7724 13.4971 101.754 12.2163 104.823Z" stroke="#571C32" stroke-width="0.791594" stroke-miterlimit="10" stroke-linecap="round" stroke-linejoin="round"/>
<mask id="mask2" mask-type="alpha" maskUnits="userSpaceOnUse" x="12" y="99" width="16" height="9">
<path d="M12.2163 104.82C13.3038 105.545 15.5029 106.802 18.5237 107.068C22.7529 107.527 26.0154 105.811 27.0787 105.183C25.9912 102.113 23.0671 99.9868 19.7321 99.9143C16.5179 99.7693 13.4971 101.751 12.2163 104.82Z" fill="#FFD54F"/>
</mask>
<g mask="url(#mask2)">
<path d="M11.1302 106.223C11.1302 106.223 9.99441 109.244 15.9877 103.299C15.9877 103.299 25.3644 98.6586 19.7819 98.8278C14.1994 98.9969 11.1302 105.691 11.1302 105.691V106.223Z" fill="#F5A546"/>
</g>
<path d="M12.2163 104.823C13.3038 105.548 15.5029 106.805 18.5237 107.071C22.7529 107.53 26.0154 105.814 27.0787 105.186C25.9912 102.117 23.0671 99.9899 19.7321 99.9174C16.4938 99.7724 13.4971 101.754 12.2163 104.823Z" stroke="#571C32" stroke-width="0.791594" stroke-miterlimit="10" stroke-linecap="round" stroke-linejoin="round"/>
<path d="M54.072 35.4182L52.2837 43.3448L54.0962 46.9457C57.0445 46.8248 59.1228 43.4415 59.6303 40.8315C59.9687 39.0915 59.5095 36.9165 57.8178 36.0224C56.682 35.4665 55.3045 35.3215 54.072 35.4182L49.7945 39.9132L54.072 35.4182Z" fill="#FFD44F"/>
<path d="M54.072 35.4182L52.2837 43.3448L54.0962 46.9457C57.0445 46.8248 59.1228 43.4415 59.6303 40.8315C59.9687 39.0915 59.5095 36.9165 57.8178 36.0224C56.682 35.4665 55.3045 35.3215 54.072 35.4182ZM54.072 35.4182L49.7945 39.9132" stroke="#571C32" stroke-width="0.791594" stroke-miterlimit="10"/>
<path d="M9.34018 35.418L11.1285 43.3447L9.31602 46.9697C6.3677 46.8488 4.28937 43.4655 3.78187 40.8555C3.44354 39.1155 3.9027 36.9405 5.59436 36.0464C6.70603 35.4664 8.08352 35.3214 9.34018 35.418L13.6177 39.913L9.34018 35.418Z" fill="#FFD44F"/>
<path d="M9.34018 35.418L11.1285 43.3447L9.31602 46.9697C6.3677 46.8488 4.28937 43.4655 3.78187 40.8555C3.44354 39.1155 3.9027 36.9405 5.59436 36.0464C6.70603 35.4664 8.08352 35.3214 9.34018 35.418ZM9.34018 35.418L13.6177 39.913" stroke="#571C32" stroke-width="0.791594" stroke-miterlimit="10"/>
<path d="M12.2645 67.4862L16.9286 63.2329L22.3178 54.8229L21.1336 53.8321C21.1336 53.8321 7.60032 64.4171 7.18949 65.6012C6.75449 66.7854 8.44615 72.5129 8.44615 72.5129C8.44615 72.5129 7.72115 74.3495 10.5728 73.5279C10.5728 73.5279 8.85698 75.437 4.362 71.087C4.362 71.087 -0.930486 73.8179 2.477 78.337C2.477 78.337 7.35865 82.397 13.4245 79.2795C19.4661 76.162 10.9111 65.6012 10.9111 65.6012" fill="#FFD44F"/>
<path d="M12.2645 67.4862L16.9286 63.2329L22.3178 54.8229L21.1336 53.8321C21.1336 53.8321 7.60032 64.4171 7.18949 65.6012C6.75449 66.7854 8.44615 72.5129 8.44615 72.5129C8.44615 72.5129 7.72115 74.3495 10.5728 73.5279C10.5728 73.5279 8.85698 75.437 4.362 71.087C4.362 71.087 -0.930486 73.8179 2.477 78.337C2.477 78.337 7.35865 82.397 13.4245 79.2795C19.4661 76.162 10.9111 65.6012 10.9111 65.6012" stroke="#571C32" stroke-width="0.791594" stroke-miterlimit="10" stroke-linecap="round" stroke-linejoin="round"/>
<path d="M48.0059 24.3974C47.1117 21.3766 45.4926 17.1475 42.5442 12.8458C37.8076 5.95832 32.1284 2.62334 29.0593 1.12501C29.0593 1.12501 29.9051 10.6708 27.8751 11.9516C27.8751 11.9516 24.3951 5.81332 22.2926 6.07916C22.2926 6.07916 17.1452 18.1141 15.8402 23.6966C14.5352 22.9716 13.1818 21.9808 12.3602 20.5308C11.0068 22.5124 8.66269 26.4274 7.81686 32.0824C7.40602 34.7891 7.14019 45.809 12.2877 53.4457C16.8068 60.0673 25.0235 61.1548 31.6693 61.179C36.5751 61.2031 46.5559 60.309 50.9784 53.8323C55.7634 46.7515 56.1984 35.7557 55.3767 30.8257C54.6034 26.2824 53.0325 23.0199 52.67 22.2949C51.51 19.9991 50.2292 18.2349 49.2384 17.075C48.7792 19.5158 48.4167 21.9566 48.0059 24.3974Z" fill="#FFD44F"/>
<path d="M48.0059 24.3974C47.1117 21.3766 45.4926 17.1475 42.5442 12.8458C37.8076 5.95832 32.1284 2.62334 29.0593 1.12501C29.0593 1.12501 29.9051 10.6708 27.8751 11.9516C27.8751 11.9516 24.3951 5.81332 22.2926 6.07916C22.2926 6.07916 17.1452 18.1141 15.8402 23.6966C14.5352 22.9716 13.1818 21.9808 12.3602 20.5308C11.0068 22.5124 8.66269 26.4274 7.81686 32.0824C7.40602 34.7891 7.14019 45.809 12.2877 53.4457C16.8068 60.0673 25.0235 61.1548 31.6693 61.179C36.5751 61.2031 46.5559 60.309 50.9784 53.8323C55.7634 46.7515 56.1984 35.7557 55.3767 30.8257C54.6034 26.2824 53.0325 23.0199 52.67 22.2949C51.51 19.9991 50.2292 18.2349 49.2384 17.075C48.7792 19.5158 48.4167 21.9566 48.0059 24.3974Z" stroke="#571C32" stroke-width="0.791594" stroke-miterlimit="10"/>
<path d="M27.9006 11.9516C27.9006 11.9516 24.4206 5.81332 22.3181 6.07916C22.3181 6.07916 17.1706 18.1141 15.8656 23.6966C14.5606 22.9716 13.2073 21.9808 12.3857 20.5308C11.0323 22.5124 8.68817 26.4274 7.84234 32.0824C7.43151 34.7891 7.16567 45.809 12.3132 53.4457C14.464 56.6115 17.4606 58.4965 20.7231 59.6323C24.2998 60.8648 14.1257 37.4474 24.2756 26.8382C27.1273 23.8658 37.2289 15.9633 29.0848 1.12501C29.0848 1.12501 30.1481 11.6133 27.9006 11.9516Z" fill="#F5A546"/>
<path d="M48.0059 24.3974C47.1117 21.3766 45.4926 17.1475 42.5442 12.8458C37.8076 5.95832 32.1284 2.62334 29.0593 1.12501C29.0593 1.12501 29.9051 10.6708 27.8751 11.9516C27.8751 11.9516 24.3951 5.81332 22.2926 6.07916C22.2926 6.07916 17.1452 18.1141 15.8402 23.6966C14.5352 22.9716 13.1818 21.9808 12.3602 20.5308C11.0068 22.5124 8.66269 26.4274 7.81686 32.0824C7.40602 34.7891 7.14019 45.809 12.2877 53.4457C16.8068 60.0673 25.0235 61.1548 31.6693 61.179C36.5751 61.2031 46.5559 60.309 50.9784 53.8323C55.7634 46.7515 56.1984 35.7557 55.3767 30.8257C54.6034 26.2824 53.0325 23.0199 52.67 22.2949C51.51 19.9991 50.2292 18.2349 49.2384 17.075C48.7792 19.5158 48.4167 21.9566 48.0059 24.3974Z" stroke="#571C32" stroke-width="0.791594" stroke-miterlimit="10"/>
<path d="M17.5575 53.5144C23.5508 59.0727 36.6491 59.4111 45.4699 53.7561C51.0041 50.2036 54.1699 33.6495 42.7391 31.837C34.7641 30.5803 24.3483 31.3053 20.7717 31.8128C9.36505 33.6253 13.9325 50.1553 17.5575 53.5144Z" fill="#F8F4DD"/>
<path d="M17.5575 53.5144C23.5508 59.0727 36.6491 59.4111 45.4699 53.7561C51.0041 50.2036 54.1699 33.6495 42.7391 31.837C34.7641 30.5803 24.3483 31.3053 20.7717 31.8128C9.36505 33.6253 13.9325 50.1553 17.5575 53.5144Z" stroke="#571C32" stroke-width="0.791594" stroke-miterlimit="10"/>
<path d="M28.9859 50.312C28.9859 50.312 29.7828 52.6312 32.6948 52.542C35.6067 52.4528 36.2971 50.312 36.2971 50.312" stroke="#571C32" stroke-width="0.791594" stroke-linecap="round"/>
<path d="M45.4375 75.1721C45.7558 75.1891 46.0137 74.9573 46.0307 74.639C46.0476 74.3207 45.8158 74.0628 45.4976 74.0458C45.1793 74.0289 44.9214 74.2606 44.9044 74.5789C44.8874 74.8972 45.1437 75.1564 45.4375 75.1721Z" fill="white"/>
<path d="M45.8874 72.7255C45.716 72.7164 45.7858 70.4857 44.9118 67.0753C43.9607 63.2678 42.6232 61.1831 42.7998 61.0943C42.979 60.9566 45.0573 63.4245 45.881 66.8568C46.6019 69.9154 46.0859 72.687 45.8874 72.7255Z" fill="white"/>
<path d="M41.9267 18.012C41.755 18.061 40.8233 14.6284 37.3416 10.6563C34.2277 7.07652 30.9422 5.26212 31.0648 5.16405C31.3835 4.89434 35.0859 6.85585 38.0527 10.2395C41.4363 13.9909 42.2454 17.9139 41.9267 18.012Z" fill="white"/>
<path d="M53.4994 35.9642C53.3523 35.9642 53.1807 33.12 52.347 28.9272C51.6115 25.1759 50.0668 22.5768 50.1403 22.5278C50.6552 22.3562 52.298 25.372 53.0336 28.9272C53.8182 32.9483 53.9653 36.0132 53.4994 35.9642Z" fill="white"/>
<ellipse cx="26.0666" cy="41.0142" rx="3.62913" ry="3.97406" fill="#571C32"/>
<ellipse cx="37.9628" cy="41.0142" rx="3.62913" ry="3.97406" fill="#571C32"/>
<ellipse cx="27.1083" cy="41.3847" rx="1.16599" ry="1.27682" fill="#F8F4DD"/>
<ellipse cx="39.0255" cy="41.3847" rx="1.16599" ry="1.27682" fill="#F8F4DD"/>
<path d="M24.5399 41.415C24.5536 42.1952 25.3701 42.7796 24.7934 42.7897C24.2167 42.7998 23.7382 42.1755 23.7245 41.3953C23.7109 40.6151 24.1673 39.9745 24.744 39.9644C25.3206 39.9543 24.5263 40.6348 24.5399 41.415Z" fill="#F8F4DD"/>
<path d="M36.4842 41.2914C36.4842 42.0663 37.2847 42.6607 36.7119 42.6607C36.1392 42.6607 35.6749 42.0326 35.6749 41.2577C35.6749 40.4829 36.1392 39.8547 36.7119 39.8547C37.2847 39.8547 36.4842 40.5166 36.4842 41.2914Z" fill="#F8F4DD"/>
</svg>
