<svg width="93" height="82" viewBox="0 0 93 82" fill="none" xmlns="http://www.w3.org/2000/svg">
<path d="M22.2398 47.8857C45.2057 42.3128 44.4692 31.2026 43.147 25.745C42.3572 22.4883 38.1864 20.6602 34.4061 21.4589C30.4838 22.2931 16.6581 28.4871 12.1235 28.5581C7.58884 28.6291 -1.87084 36.5713 0.844602 60.8861C3.56005 85.2008 30.9275 81.2963 30.9275 81.2963C30.9275 81.2963 62.5455 81.0744 73.5227 79.344C80.7905 78.1993 92.0959 66.9204 86.0882 52.722C86.0882 52.722 94.838 42.0022 91.2174 32.0278C89.2296 26.5614 83.3994 27.5198 83.3994 27.5198C83.3994 27.5198 88.4398 10.7657 74.4544 11.0497C74.4544 11.0497 74.0285 5.81404 70.3546 3.13409C67.2665 0.880093 44.62 -8.33112 14.0136 26.2065L7.80182 33.3057L22.2398 47.8857Z" fill="#F6C58C"/>
</svg>
